<svg xmlns="http://www.w3.org/2000/svg" width="54" height="54" viewBox="0 0 54 54"><g transform="translate(-17743 -4776)"><rect width="54" height="54" rx="27" transform="translate(17743 4776)"/><g transform="translate(17402.648 4431.149)"><path d="M68.172,358.214a16.613,16.613,0,0,0-2.172.744c-.1.054-.1.086.023.44a2.7,2.7,0,0,1-4.145,3l-.379-.254-.341.38a14.2,14.2,0,0,0-1.66,2.338.686.686,0,0,0,.233.165,2.686,2.686,0,0,1-1.33,4.984c-.522,0-.6.022-.649.132a17.763,17.763,0,0,0-.07,2.832l.055.5.384-.023c2.746-.164,3.94,3.723,1.54,5.015-.263.142-.267.158-.119.445a15.331,15.331,0,0,0,1.927,2.572,1.355,1.355,0,0,0,.278-.209,2.714,2.714,0,0,1,4.269,2.927,1.016,1.016,0,0,0-.09.474,15.367,15.367,0,0,0,3.177,1c.056,0,.119-.134.164-.349a2.725,2.725,0,0,1,4.227-1.589,2.992,2.992,0,0,1,1.093,1.762.113.113,0,0,0,.116.109,13.76,13.76,0,0,0,2.443-.755c.6-.254.593-.238.363-.873a2.7,2.7,0,0,1,4.321-2.852l.281.254.291-.329a15.054,15.054,0,0,0,1.621-2.352,1.458,1.458,0,0,0-.325-.237,2.679,2.679,0,0,1,1.4-4.941l.642-.026.049-.774a9.473,9.473,0,0,0-.086-2.279c-.032-.032-2.9-.05-6.435-.041l-6.377.017v4.254l3.181-.024,3.181-.024-.047.157c-.7,2.328-3.537,4.6-6.261,5.01a8.053,8.053,0,0,1-7.791-12.564c3.32-4.8,10.98-4.4,13.594.715l.162.316h3.753v-.718a2.626,2.626,0,0,1,1.247-2.373l.176-.133-.422-.665a14.042,14.042,0,0,0-1.6-2.07.818.818,0,0,0-.4.2,2.706,2.706,0,0,1-4.131-2.969,3.456,3.456,0,0,0,.107-.437,9.182,9.182,0,0,0-3.156-.987l-.1.328a2.713,2.713,0,0,1-3.124,1.749,2.75,2.75,0,0,1-2.093-2.082c-.041-.117-.167-.1-1,.111" transform="translate(295.619 0)" fill="#fff" fill-rule="evenodd"/></g></g></svg>