<svg xmlns="http://www.w3.org/2000/svg" width="79" height="79" viewBox="0 0 79 79">
  <g id="Group_435" data-name="Group 435" transform="translate(10788 -3829)">
    <rect id="Rectangle_6" data-name="Rectangle 6" width="79" height="79" rx="12" transform="translate(-10788 3829)"/>
    <path id="Path_35" data-name="Path 35" d="M14.19,0H3.592V-32.727h10.93a16.48,16.48,0,0,1,8.267,1.958,13.064,13.064,0,0,1,5.293,5.612,19.194,19.194,0,0,1,1.846,8.743A19.321,19.321,0,0,1,28.071-7.62,13.061,13.061,0,0,1,22.7-1.97,17.161,17.161,0,0,1,14.19,0ZM8.54-4.321h5.382A12.424,12.424,0,0,0,20.133-5.73,8.77,8.77,0,0,0,23.84-9.837a15.812,15.812,0,0,0,1.229-6.577,15.714,15.714,0,0,0-1.219-6.533,8.726,8.726,0,0,0-3.631-4.068,11.838,11.838,0,0,0-5.991-1.39H8.54ZM37.022,0H31.78L43.554-32.727h5.7L61.03,0H55.789L46.533-26.783h-.256Zm.869-12.81h17v4.142h-17Z" transform="translate(-10778.811 3884.864)" fill="#fff"/>
  </g>
</svg>
