<?xml version="1.0" encoding="utf-8"?>
<svg xmlns="http://www.w3.org/2000/svg" fill="none" height="26" viewBox="0 0 91 26" width="91">
<g id="Logo">
<g id="text">
<g id="Union">
<path d="M42.8725 15.658V24.7759H45.835V15.0655C45.835 13.8366 45.5717 12.7504 45.045 11.8068C44.5183 10.8632 43.7942 10.128 42.8725 9.60135C41.9728 9.07468 40.9304 8.81135 39.7454 8.81135C38.5604 8.81135 37.4961 9.08565 36.5525 9.63426C35.8417 10.031 35.2492 10.5398 34.775 11.1606V1.27344H31.8125V24.7759H34.775V15.658C34.775 14.868 34.9506 14.1658 35.3017 13.5513C35.6528 12.9369 36.1356 12.4541 36.75 12.103C37.3644 11.7519 38.0667 11.5763 38.8567 11.5763C40.0417 11.5763 41.0072 11.9604 41.7533 12.7284C42.4994 13.4965 42.8725 14.473 42.8725 15.658Z" fill="#787882"/>
<path d="M51.0309 24.2492C52.0623 24.8198 53.2254 25.1051 54.5201 25.1051C55.8368 25.1051 56.9888 24.8198 57.9763 24.2492C58.9858 23.6567 59.7758 22.8448 60.3463 21.8134C60.9169 20.782 61.2022 19.5861 61.2022 18.2255V9.14051H58.2397V18.0938C58.2397 19.3886 57.9105 20.409 57.2522 21.1551C56.5938 21.8792 55.6831 22.2413 54.5201 22.2413C53.752 22.2413 53.0827 22.0767 52.5122 21.7476C51.9416 21.4184 51.5027 20.9466 51.1955 20.3322C50.9102 19.6958 50.7676 18.9497 50.7676 18.0938V9.14051H47.8051V18.2255C47.8051 19.5861 48.0904 20.782 48.6609 21.8134C49.2315 22.8448 50.0215 23.6567 51.0309 24.2492Z" fill="#787882"/>
<path clip-rule="evenodd" d="M70.7686 25.1051C69.2105 25.1051 67.8061 24.754 66.5552 24.0517C65.3044 23.3276 64.3169 22.3511 63.5927 21.1222C62.8686 19.8933 62.5065 18.4998 62.5065 16.9418C62.5065 15.4056 62.8576 14.0231 63.5598 12.7943C64.284 11.5654 65.2495 10.5998 66.4565 9.8976C67.6854 9.17343 69.0569 8.81135 70.5711 8.81135C72.0194 8.81135 73.2922 9.14051 74.3894 9.79885C75.5086 10.4572 76.3754 11.3679 76.9898 12.5309C77.6262 13.694 77.9444 15.0106 77.9444 16.4809C77.9444 16.7004 77.9334 16.9418 77.9115 17.2051C77.8895 17.4465 77.8456 17.7318 77.7798 18.0609H65.5352C65.6394 18.6698 65.8258 19.2294 66.0944 19.7397C66.5333 20.5516 67.1587 21.188 67.9706 21.6488C68.7826 22.0877 69.7152 22.3072 70.7686 22.3072C71.6463 22.3072 72.4473 22.1536 73.1715 21.8463C73.9176 21.5391 74.554 21.0783 75.0806 20.4638L76.9898 22.4059C76.2437 23.2837 75.322 23.953 74.2248 24.4138C73.1495 24.8747 71.9974 25.1051 70.7686 25.1051ZM66.0615 14.0451C65.8155 14.5111 65.6421 15.0268 65.5412 15.5922H75.057C74.9761 14.945 74.8084 14.3745 74.554 13.8805C74.1809 13.1344 73.6543 12.5638 72.974 12.1688C72.2937 11.7519 71.4708 11.5434 70.5052 11.5434C69.4958 11.5434 68.607 11.7629 67.839 12.2018C67.0709 12.6406 66.4784 13.2551 66.0615 14.0451Z" fill="#787882" fill-rule="evenodd"/>
<path d="M79.8579 23.7884C80.5163 24.2054 81.2294 24.5345 81.9975 24.7759C82.7875 24.9954 83.6214 25.1051 84.4992 25.1051C86.2547 25.1051 87.6482 24.6772 88.6796 23.8213C89.7329 22.9655 90.2596 21.8024 90.2596 20.3322C90.2596 19.3666 90.0511 18.5876 89.6342 17.9951C89.2392 17.4026 88.7235 16.9308 88.0871 16.5797C87.4507 16.2286 86.7814 15.9543 86.0792 15.7568C85.3769 15.5373 84.6967 15.3288 84.0383 15.1313C83.4019 14.9338 82.8862 14.6925 82.4912 14.4072C82.0963 14.1219 81.8988 13.7159 81.8988 13.1893C81.8988 12.6626 82.1182 12.2566 82.5571 11.9713C83.0179 11.6641 83.6763 11.5105 84.5321 11.5105C85.344 11.5105 86.0682 11.6641 86.7046 11.9713C87.3629 12.2786 87.9115 12.7175 88.3504 13.288L90.2596 11.3788C89.6451 10.523 88.8551 9.88662 87.8896 9.46968C86.946 9.03079 85.8597 8.81135 84.6308 8.81135C83.4678 8.81135 82.4693 8.99787 81.6354 9.37093C80.8235 9.74398 80.1871 10.2816 79.7263 10.9838C79.2654 11.6641 79.035 12.4761 79.035 13.4197C79.035 14.3633 79.2325 15.1204 79.6275 15.6909C80.0444 16.2615 80.5711 16.7113 81.2075 17.0405C81.8439 17.3697 82.5132 17.644 83.2154 17.8634C83.9396 18.0609 84.6199 18.2694 85.2562 18.4888C85.8926 18.6863 86.4083 18.9497 86.8033 19.2788C87.2203 19.5861 87.4287 20.0249 87.4287 20.5955C87.4287 21.1661 87.1764 21.6159 86.6717 21.9451C86.1669 22.2523 85.4538 22.4059 84.5321 22.4059C83.6104 22.4059 82.7765 22.2413 82.0304 21.9122C81.2843 21.5611 80.626 21.0344 80.0554 20.3322L78.1463 22.2413C78.629 22.8338 79.1996 23.3495 79.8579 23.7884Z" fill="#787882"/>
</g>
<g id="TM">
<path d="M87.4872 3.89107V4.47442H86.7849V6.24921H86.1183V4.47442H85.416V3.89107H87.4872Z" fill="#787882"/>
<path d="M90.2242 3.85571V6.25982H89.5576V5.09312L89.0692 5.64112H88.8696L88.3812 5.09312V6.25982H87.7146V3.85571H87.9499L88.9694 4.88099L89.989 3.85571H90.2242Z" fill="#787882"/>
</g>
</g>
<g id="icon">
<path d="M3.40145 7.72766C4.32399 10.6857 7.4698 12.3357 10.4278 11.4132C13.3858 10.4907 20.3918 5.67444 19.4693 2.71643C18.5468 -0.241581 10.045 -0.221243 7.08699 0.701299C4.12898 1.62384 2.4789 4.76965 3.40145 7.72766Z" fill="#787882" id="1"/>
<g id="3">
<path d="M1.61465 23.9474C3.35085 25.6836 6.16548 25.6836 7.90168 23.9474C9.63789 22.2112 12.7812 16.2529 11.0454 14.5167C9.30915 12.7806 3.35085 15.9241 1.61465 17.6602C-0.12155 19.3964 -0.12155 22.2112 1.61465 23.9474Z" fill="#787882"/>
</g>
<g id="2">
<path d="M18.227 25.6546C21.22 26.4565 24.2964 24.6804 25.0985 21.6874C25.9002 18.6944 25.5763 10.1989 22.5833 9.3969C19.5903 8.595 15.062 15.7903 14.26 18.7833C13.4579 21.7762 15.234 24.8526 18.227 25.6546Z" fill="#787882"/>
</g>
</g>
</g>
</svg>