<svg xmlns="http://www.w3.org/2000/svg" width="76.962" height="18.368" viewBox="0 0 76.962 18.368">
  <g id="Group_35" data-name="Group 35" transform="translate(-303.984 -59)">
    <path id="Path_323" data-name="Path 323" d="M16.477,19.829c-.037.064-.036,11.029,0,11.093.051.088,11.854.061,11.92-.024a13.669,13.669,0,0,0,.019-2.325c-.042-.082-.407-.088-4.519-.082-3.063,0-4.5-.016-4.567-.054-.093-.055-.1-.124-.1-4.293,0-3.227-.015-4.254-.057-4.3A15.659,15.659,0,0,0,16.477,19.829Zm19.282.07a5.336,5.336,0,0,0-.352.566c-.139.247-.386.675-.549.951s-.338.579-.5.871l-.374.659-.256.449q-.624,1.1-1.268,2.19c-.678,1.16-.831,1.425-.954,1.663-.076.144-.271.49-.434.765s-.412.7-.552.951q-.4.7-.8,1.389c-.361.614-.412.587,1.138.6,1.6.019,1.47.049,1.759-.431.526-.892.624-1.063.837-1.437.337-.6-.07-.544,3.8-.546,3.239,0,3.4,0,3.48.1a3.353,3.353,0,0,1,.347.582l.15.268.427.741c.469.815.272.74,1.878.74H44.9l.018-.12a.878.878,0,0,0-.16-.41q-.218-.366-.43-.737-.418-.737-.84-1.467-.245-.424-.494-.844c-.118-.193-.231-.391-.334-.593a2.451,2.451,0,0,0-.181-.317c-.144-.234-.283-.47-.413-.713-.2-.364-.409-.726-.618-1.084q-.386-.658-.765-1.318c-.162-.274-.319-.548-.35-.606-.1-.171-.2-.341-.3-.511-.13-.222-.323-.555-.427-.741-.123-.214-.247-.428-.374-.639a2.544,2.544,0,0,1-.181-.34,3.15,3.15,0,0,0-.377-.608l-.12-.144H37.207c-1.339,0-1.351,0-1.448.117Zm7.67-.072c-.051.033-.01.1.163.275l.28.286,1.255,1.262q1.3,1.307,2.59,2.637l1.249,1.271c.317.325.7.72.861.876.5.5.454.244.457,2.414a17.286,17.286,0,0,0,.052,2.02,7.12,7.12,0,0,0,2.7-.016,9.843,9.843,0,0,0,.073-1.988c.007-2.237-.069-1.924.665-2.65.332-.329.683-.684.779-.785s.412-.424.7-.714.581-.587.65-.659l1.945-1.985q.9-.919,1.794-1.852c.445-.46.521-.439-1.669-.439H56.063l-.154.124q-1.074,1.118-2.114,2.279-1,1.118-2.042,2.2c-.1.061-.118.043-2.5-2.565-.976-1.071-1.827-1.966-1.887-1.993C47.225,19.764,43.516,19.764,43.43,19.827ZM37.595,23.2c.213.392.591,1.051,1.183,2.066.434.741.434.746.389.8s-2.724.07-3.794.051c-.2,0-.153-.123.6-1.428.159-.275.457-.8.66-1.16.594-1.059.561-1.047.958-.322Z" transform="translate(321.055 40.224)" fill="#787882"/>
    <g id="Group_33" data-name="Group 33" transform="translate(301.977 59.001)">
      <path id="Path_314" data-name="Path 314" d="M15.2,15.045c-.086.015-.138.066-.373.372-.15.195-.378.488-.508.653s-.28.361-.332.436-.12.164-.182.244c-.455.566-.524.664-.457.669s.639,0,1.427,0l.883,0,.1-.1a2.62,2.62,0,0,0,.22-.265c.068-.092.154-.2.193-.249s.108-.13.153-.191.1-.135.124-.164l.146-.195c.059-.077.151-.194.2-.257s.17-.217.259-.342.225-.307.3-.4a.555.555,0,0,0,.121-.206C17.463,15.016,15.37,15.015,15.2,15.045Z" transform="translate(-1.573 -2.088)" fill="#787882"/>
      <path id="Path_316" data-name="Path 316" d="M9.833,2.385c-.016.012-.129.154-.251.315s-.265.344-.319.409-.151.194-.215.284a2.436,2.436,0,0,1-.147.2q-.081.1-.155.2c-.054.073-.109.146-.166.216s-.1.13-.151.2c-.091.121-.183.239-.276.358s-.228.3-.3.4-.287.376-.469.607-.406.521-.5.641c-.291.385-.6.788-.635.82q-.35.439-.689.891c-.091.121-.183.239-.276.359l-.5.651c-.185.239-.372.482-.413.539-.065.087-.133.173-.2.257a2.891,2.891,0,0,0-.173.232,2.322,2.322,0,0,1-.164.213c-.065.075-.166.2-.226.284s-.143.189-.187.243-.107.132-.156.2-.112.153-.159.213-.18.229-.3.379c-.307.4-.521.678-.664.858-.232.294-.271.281.833.28,1.131,0,.97.059,1.415-.548l.263-.345c.092-.119.333-.433.535-.7s.4-.526.448-.577.27-.338.5-.641.589-.765.794-1.03l.617-.8c.219-.288.376-.491.71-.916l.659-.85c.045-.059.158-.208.251-.334s.227-.3.3-.389L9.7,5.2c.146-.183.157-.177.488.256l.977,1.269c.3.388.471.61.524.685.03.043.1.13.152.2s.158.2.233.3.194.25.262.334.151.187.181.228.237.307.458.592l.462.592c.033.041.2.266.381.5.771,1.016.656.945.929.578.1-.139.306-.4.452-.581.371-.464.363-.446.28-.574-.072-.111-.35-.474-1.044-1.359q-.411-.522-.813-1.054l-.5-.654-1.737-2.25-.8-1.032C9.922,2.366,9.9,2.338,9.833,2.385Z" transform="translate(0 -0.33)" fill="#787882"/>
      <path id="Path_317" data-name="Path 317" d="M25.421.041a1.8,1.8,0,0,1-.138.189l-.35.45c-.129.168-.258.332-.288.364q-.221.271-.425.558c-.045.072-.118.167-.452.58-.1.127-.23.3-.29.38s-.22.3-.356.471-.462.6-.724.935l-.635.82c-.147.187-.29.375-.771,1.007-.095.126-.333.435-.531.688s-.415.534-.621.8q-.2.256-.4.506a2.1,2.1,0,0,0-.164.216.831.831,0,0,1-.1.127q-.227.27-.434.56c-.073.1-.178.237-.233.3-.118.146-.624.8-1,1.306q-.176.236-.363.462a2.491,2.491,0,0,0-.165.212c-.043.065-.133.185-.2.27s-.168.213-.221.286c-.067.093-.136.184-.208.273-.4.5-.489.456.916.456,1.161,0,1.335-.015,1.335-.118a.721.721,0,0,1,.117-.18l.245-.312.3-.389c.1-.123.251-.324.342-.444q.227-.3.455-.592c.419-.54.914-1.183,1.2-1.558.136-.18.428-.555.648-.833s.443-.568.5-.642.122-.166.153-.2.15-.184.264-.334c.667-.873,2.23-2.9,2.314-3.006.053-.068.151-.188.212-.267.14-.177.152-.172.381.127q.6.785,1.207,1.561c.1.13.572.754.618.812l.17.213c.119.146.228.289.642.83.394.515.731.951.757.977s.086.105.153.2.17.221.226.288.132.163.166.214.112.152.174.228.261.335.443.573.372.484.421.544c.152.186.433.176-4.871.195-3.7.012-4.9.025-4.951.053a5.228,5.228,0,0,0-.511.6l-.618.793c-.366.468-.47.619-.462.666s.129.049,1.237.044c.675,0,4.2-.007,7.844-.009,6.568,0,6.616,0,6.616-.064a4.753,4.753,0,0,0-.563-.786c-.121-.156-.24-.313-.359-.471q-.287-.377-.584-.744-.422-.518-.83-1.05-.218-.289-.441-.575l-.72-.929q-.2-.263-.412-.514a.627.627,0,0,1-.094-.127,3.136,3.136,0,0,0-.237-.315c-.076-.09-.148-.183-.216-.281-.088-.125-.18-.247-.276-.364q-.4-.514-.8-1.032-.338-.444-.682-.883c-.136-.17-.27-.342-.4-.516-.086-.119-.726-.949-1.085-1.41-.22-.284-.61-.789-.868-1.125-.493-.642-.71-.92-.809-1.038C25.546-.01,25.454-.025,25.421.041Z" transform="translate(-1.957 0)" fill="#787882"/>
    </g>
    <g id="Group_34" data-name="Group 34" transform="translate(-0.81 -47.372)">
      <path id="Path_324" data-name="Path 324" d="M6.226,30.427c-.036.044-.046.182-.046.643,0,.811.01.8-.485.811-.325.011-.38.047-.38.24s.059.219.525.2c.432-.014.621-.082.741-.265a6.37,6.37,0,0,0,.05-1.642.461.461,0,0,0-.405.014Zm.836-.041c-.163.028-.17.068-.165,1.086,0,.847,0,.841.24.838.28-.006.26.064.26-.948,0-.951-.012-1.027-.175-1-.017,0-.09.014-.16.028Zm.743,0c-.2.014-.2.014-.2.836,0,.776.015.825.252.986l.159.108.787,0c1.182,0,1.188-.007,1.188-1.18,0-.734,0-.745-.2-.759-.277-.019-.284,0-.284.725,0,.836.055.775-.7.775s-.7.058-.725-.74S8.081,30.364,7.8,30.383Zm5.454.013-.087.034-.01.653c-.012.8-.006.788-.428.788-.378,0-.432.028-.432.227,0,.217.032.228.562.209l.447-.016.144-.134a.647.647,0,0,0,.165-.22,12.915,12.915,0,0,0,0-1.5A.455.455,0,0,0,13.259,30.4Zm1.377.037a.258.258,0,0,0-.027.289c.031.092.033.092.412.092.515,0,.486-.047.486.788v.66l.088.035c.339.145.392.038.392-.787v-.7H16.4c.457,0,.487-.014.487-.215,0-.218.01-.216-1.144-.224C14.769,30.37,14.69,30.374,14.636,30.433Zm2.959-.028a.567.567,0,0,0-.071,1.095,2.442,2.442,0,0,0,.746.055c.644,0,.731.018.731.154,0,.166-.059.18-.732.175-.588-.006-.632-.01-.68-.077-.125-.17-.415-.138-.415.044,0,.33.231.442.958.468,1.059.039,1.318-.074,1.344-.585.013-.241.013-.244-.111-.384-.2-.227-.216-.231-.941-.245s-.869-.055-.727-.211a2.253,2.253,0,0,1,1.24.005c.308.151.49.1.452-.121a.661.661,0,0,0-.279-.34A5.664,5.664,0,0,0,17.595,30.405Zm2.2.014c-.056.041-.06.1-.06.74,0,.8.016.866.25,1.046l.14.108.816-.009c1.183-.009,1.174,0,1.193-1.034.016-.921-.023-1.012-.375-.877l-.1.039-.01.647c-.012.858.025.811-.649.806-.833-.008-.787.043-.787-.843a3.124,3.124,0,0,0-.031-.634A.583.583,0,0,0,19.8,30.419Zm-5.89.018a8.262,8.262,0,0,0,.035,1.837.481.481,0,0,0,.387-.011,10.047,10.047,0,0,0,.028-1.6l-.021-.255-.2-.011c-.139-.007-.207,0-.234.041Zm-3.626.784c-.113.324-.09.333.883.333h.85l.035-.087a.317.317,0,0,0,.007-.2l-.03-.115-1.714-.018Z" transform="translate(333 92.388)" fill="#787882"/>
      <path id="Path_325" data-name="Path 325" d="M30.315,30.987a1.263,1.263,0,0,0,.129.184c.142.172.093.273-.138.282-.31.014-.45-.088-.345-.247C30.14,30.929,30.252,30.859,30.315,30.987Z" transform="translate(333 92.388)" fill="#787882"/>
      <path id="Path_326" data-name="Path 326" d="M31.922,30.385c-.065.071-.066.1-.05.946.02,1,0,.913.2.942.262.038.261.041.261-.473,0-.688.107-.729.437-.171.269.454.308.49.518.488.16,0,.25-.063.37-.253.056-.086.166-.251.246-.366.056-.078.11-.157.163-.237.086-.135.157.055.161.426.006.576.01.588.212.592.263.005.249.055.25-.926,0-1.056.007-1.033-.217-1.032-.244,0-.3.024-.371.171a.959.959,0,0,1-.133.2.213.213,0,0,0-.065.108.142.142,0,0,1-.046.085,6.5,6.5,0,0,0-.465.667c-.054.11-.166.094-.251-.041-.163-.253-.417-.634-.562-.839-.063-.088-.123-.179-.18-.272S32.006,30.294,31.922,30.385Z" transform="translate(333 92.388)" fill="#787882"/>
      <path id="Path_327" data-name="Path 327" d="M30.023,30.348c-.067.03-.15.147-.269.378a1.615,1.615,0,0,1-.11.192,2.588,2.588,0,0,0-.193.326c-.119.229-.25.451-.39.666-.2.291-.185.4.069.364s.284-.048.3-.114a.789.789,0,0,1,.126-.194l.109-.131h1.126l.132.193c.14.205.157.216.383.247.282.042.215-.148-.428-1.2-.072-.121-.195-.33-.27-.465-.087-.155-.163-.25-.208-.261a.911.911,0,0,0-.382,0Z" transform="translate(333 92.388)" fill="#787882"/>
      <path id="Path_328" data-name="Path 328" d="M26.426,30.344c-.012.013-.021.446-.021.963v.941l.265.023c.341.029,1.574.029,1.766,0l.149-.022v-.188c0-.155-.01-.191-.056-.2-.031,0-.4-.007-.819-.008-.8,0-.822-.007-.824-.164s.05-.182.708-.2c.812-.019.772-.008.76-.214l-.009-.166-.686-.021c-.7-.021-.773-.037-.773-.173s.064-.16.882-.165a7.15,7.15,0,0,0,.812-.031.855.855,0,0,0-.011-.368,19.369,19.369,0,0,0-2.143-.014Z" transform="translate(333 92.388)" fill="#787882"/>
      <path id="Path_329" data-name="Path 329" d="M23.763,30.363c-.1.341-.057.379.393.379.538,0,.5-.053.5.792,0,.783-.009.759.25.733.216-.022.2.037.206-.654l.008-.675c0-.161.041-.176.487-.2l.426-.016v-.388l-1.13-.01a4.219,4.219,0,0,0-1.143.036Z" transform="translate(333 92.388)" fill="#787882"/>
    </g>
  </g>
</svg>
