<svg xmlns="http://www.w3.org/2000/svg" width="155.275" height="28.055" viewBox="0 0 155.275 28.055">
  <g id="svgg" transform="translate(-72.449 -73.896)">
    <path id="path0" d="M73.934,74.034A2.19,2.19,0,0,0,72.7,75.167c-.248.577-.351,24.426-.109,25.3.337,1.215.813,1.382,3.948,1.382,2.867,0,2.929-.014,3.578-.816l.323-.4V75.323l-.286-.441c-.562-.864-.944-.965-3.637-.957a19.733,19.733,0,0,0-2.578.109m27.721.057a3.1,3.1,0,0,0-1.023.92c-.089.152-.136,2.988-.176,10.662-.06,11.283-.042,10.938-.612,11.508-.618.618-.512.605-5.314.662-4.38.052-4.426.054-4.918.3a1.924,1.924,0,0,0-.635,3.032c.7.771.248.738,9.557.705l8.321-.029.434-.232c1.218-.652,1.171-.1,1.173-13.811,0-13.78.071-13.056-1.295-13.689a19.17,19.17,0,0,0-5.513-.025m23.811.014c-.842.466-1.067.808-1.3,1.976a2.14,2.14,0,0,1-1.89,1.9,2.189,2.189,0,0,0-2.094,2,2.059,2.059,0,0,1-1.906,1.989,2.158,2.158,0,0,0-2,1.633c-.145.675-.146,8.193,0,8.82a1.989,1.989,0,0,0,1.6,1.468,2.393,2.393,0,0,1,2.315,2.058,2.214,2.214,0,0,0,1.847,2c1.355.313,1.825.749,2.126,1.973a2.436,2.436,0,0,0,.985,1.71l.394.318,8.623-.019,8.623-.02.421-.236a1.907,1.907,0,0,0,.941-1.5c.227-1.227.734-1.879,1.612-2.075,2.385-.531,2.393-.548,2.425-5.72.032-5.14-.056-5.577-1.261-6.2-.474-.243-16.563-.315-17.255-.077a1.919,1.919,0,0,0-1.36,2.23,2.269,2.269,0,0,0,1.232,1.395c.319.117,1.68.157,6.813.2l6.414.056.441.312a1.937,1.937,0,0,1-.85,3.59,2.307,2.307,0,0,0-2.168,2.037c-.276,1.949-.882,2.153-6.225,2.1-5.018-.05-5.487-.209-5.7-1.926a2.241,2.241,0,0,0-2.2-2.167c-1.755-.256-1.926-.827-1.882-6.3.041-5.1.159-5.4,2.2-5.654a2.133,2.133,0,0,0,1.844-2.06,1.982,1.982,0,0,1,1.145-1.669l.547-.273h6.2c6.964,0,6.86.01,7.527-.728a2,2,0,0,0-.82-3.135c-.623-.283-16.869-.29-17.38-.008m31.832,0a2.109,2.109,0,0,0-1.26,1.8,2.132,2.132,0,0,1-2.01,2.066,2.2,2.2,0,0,0-1.38.616c-.588.517-.618.807-.579,5.737l.034,4.325.286.432a2.388,2.388,0,0,0,.728.668l.442.236H170.41l.416-.224a1.892,1.892,0,0,0-.126-3.536c-.268-.112-1.556-.14-6.457-.14-5.134,0-6.206-.025-6.646-.155-2.295-.682-1.859-3.653.58-3.953,1.108-.136,1.618-.7,1.935-2.152.4-1.811.589-1.869,6.145-1.83l4.376.03.431.286c.522.345.694.658.969,1.762.316,1.272,1.009,1.957,1.976,1.957a2.337,2.337,0,0,1,1.616.9c.434.576.484,1.255.437,5.908-.045,4.418-.155,4.712-1.888,5.032a2.221,2.221,0,0,0-2.115,2.007c-.56,2.156-.353,2.1-8.262,2.166l-6.4.052-.432.286a1.93,1.93,0,0,0,.016,3.241l.4.322,8.546,0,8.545,0,.467-.259a2.176,2.176,0,0,0,1.031-1.753c.185-1.151.727-1.646,2.236-2.04a2.06,2.06,0,0,0,1.728-1.8,2.372,2.372,0,0,1,2.182-2.143,1.883,1.883,0,0,0,1.6-1.114l.273-.548V88.057c0-5.487-.119-5.834-2.091-6.086-1.2-.154-1.781-.867-2.025-2.488a2.161,2.161,0,0,0-1.418-1.41c-1.329-.36-1.589-.467-1.913-.792a1.957,1.957,0,0,1-.446-.735c-.056-.215-.156-.609-.223-.875a2.112,2.112,0,0,0-1-1.442l-.489-.31-8.379,0c-7.7,0-8.4.019-8.7.182m35.651.133a1.588,1.588,0,0,0-.805.857l-.251.539V87.869c0,13.371-.027,12.781.593,13.428.535.559.885.616,3.571.581,2.789-.036,3.008-.092,3.585-.908l.312-.442V79.587l.245-.475a2.042,2.042,0,0,1,.728-.78l.483-.305,4.473-.052c4.281-.05,4.493-.061,4.95-.273a1.876,1.876,0,0,0,.541-2.949c-.756-.883-.145-.83-9.548-.832H193.5l-.554.318m28.015-.1c-1.287.667-1.2-.381-1.2,13.81,0,12.857-.005,12.71.5,13.253.577.616.685.638,3.358.675,2.867.04,3.25-.045,3.8-.84l.293-.424V87.97c0-13.726.031-12.939-.536-13.443-.653-.58-.813-.609-3.394-.6-2.234,0-2.446.021-2.831.22" transform="translate(0 0)" fill="#787882" fill-rule="evenodd"/>
  </g>
</svg>
