<svg xmlns="http://www.w3.org/2000/svg" width="121.322" height="35.202" viewBox="0 0 121.322 35.202">
  <g id="Group_30" data-name="Group 30" transform="translate(-129.348 -55.523)">
    <g id="ФКЭ" transform="translate(39.909 42.755)">
      <path id="Path_1" data-name="Path 1" d="M112.118,21.146l1.628-2.4a.024.024,0,0,1,.035-.006,11.259,11.259,0,0,1,1.086.931.041.041,0,0,1,.005.052l-2.172,3.2L107.768,30.2a.056.056,0,0,0,.005.075l4.319,4.914,2.783,3.165.9,1.029a.045.045,0,0,1,0,.06,12.8,12.8,0,0,1-.883.948.034.034,0,0,1-.044.006.28.28,0,0,1-.1-.1l-3.731-4.242-4.061-4.619a.023.023,0,0,0-.037,0q-.261.377-.52.764a.372.372,0,0,0-.062.209q-.007,7.76-.008,15.51a.028.028,0,0,1-.029.031l-.041,0-1.6.006a.031.031,0,0,1-.032-.031V45.748a.017.017,0,0,0-.016-.017A16.232,16.232,0,0,1,92.725,39.6q-.351-.447-.653-.9a15.568,15.568,0,0,1-.774-16.05,16.021,16.021,0,0,1,12.164-8.209q.572-.072,1.151-.107a.028.028,0,0,0,.03-.032l0-.487,0-1.011a.03.03,0,0,1,.03-.03l1.657.01a.021.021,0,0,1,.021.021l-.005,16.834c0,.021.006.023.017.005l5.753-8.493M91.913,34.814A14.783,14.783,0,0,0,104.6,44.97c.021,0,.032-.008.032-.029l.017-29.812a.042.042,0,0,0-.046-.042,14.52,14.52,0,0,0-9.777,5.031,15.166,15.166,0,0,0-2.91,14.7h0Z" transform="translate(0 0)" fill="#787882"/>
      <path id="Path_2" data-name="Path 2" d="M368.739,39.205a16.245,16.245,0,0,1,2.4,1.452,15.569,15.569,0,0,1-.174,25.3,16.172,16.172,0,0,1-4.309,2.173,17.045,17.045,0,0,1-3.879.786.028.028,0,0,1-.03-.028l0-.7a.035.035,0,0,1,.035-.039,13.929,13.929,0,0,0,4.135-1.11,14.744,14.744,0,0,0,4.066-2.67,15.182,15.182,0,0,0,4.833-10.272c0-.019-.008-.029-.027-.029l-4.6.022q-.783,0-1.566,0a1.274,1.274,0,0,1-.781-.2c-.165-.118-.112-.29.042-.375a1.245,1.245,0,0,1,.59-.165q.422-.008,1.923-.012l4.424-.018a.014.014,0,0,0,.012,0,.014.014,0,0,0,0-.012,15.2,15.2,0,0,0-3.477-9.728,14.832,14.832,0,0,0-4.344-3.585,14.274,14.274,0,0,0-5.13-1.643.031.031,0,0,1-.028-.032l0-.715a.023.023,0,0,1,.024-.023,16.729,16.729,0,0,1,5.85,1.625h0Z" transform="translate(-255.713 -23.214)" fill="#787882"/>
    </g>
    <path id="Path_312" data-name="Path 312" d="M1.6,0V-14.545H3.8V-7.6h.176l6.1-6.949h2.761L6.966-8l5.892,8H10.21l-4.7-6.5L3.8-4.523V0ZM13.767-14.545h2.494l3.8,6.614h.159l3.8-6.614h2.494L21.233-5.71V0H19.04V-5.71ZM28.58,0V-14.545h5.188a6.048,6.048,0,0,1,2.805.581,3.87,3.87,0,0,1,1.673,1.609A4.9,4.9,0,0,1,38.8-9.989a4.776,4.776,0,0,1-.559,2.351,3.806,3.806,0,0,1-1.678,1.571,6.226,6.226,0,0,1-2.8.561H29.83V-7.392h3.727A4.2,4.2,0,0,0,35.3-7.7a2.034,2.034,0,0,0,.982-.887,2.923,2.923,0,0,0,.312-1.4,3.037,3.037,0,0,0-.315-1.425,2.1,2.1,0,0,0-.987-.926,4.058,4.058,0,0,0-1.755-.325H30.778V0Zm7.182-6.562L39.352,0H36.858L33.33-6.562Zm15.56-3.386a4.575,4.575,0,0,0-.55-1.164,3.642,3.642,0,0,0-.82-.879,3.5,3.5,0,0,0-1.082-.555,4.4,4.4,0,0,0-1.329-.191,4.039,4.039,0,0,0-2.22.629,4.281,4.281,0,0,0-1.56,1.848,6.979,6.979,0,0,0-.573,2.983,6.983,6.983,0,0,0,.575,2.989A4.265,4.265,0,0,0,45.34-2.438a4.2,4.2,0,0,0,2.286.631,4.251,4.251,0,0,0,2.065-.482,3.393,3.393,0,0,0,1.373-1.365,4.236,4.236,0,0,0,.489-2.082l.568.105H47.955V-7.443h5.722V-5.79A6.232,6.232,0,0,1,52.9-2.61,5.362,5.362,0,0,1,50.752-.533,6.527,6.527,0,0,1,47.619.2a6.511,6.511,0,0,1-3.459-.908,6.132,6.132,0,0,1-2.319-2.582,8.86,8.86,0,0,1-.83-3.976,9.459,9.459,0,0,1,.482-3.125,6.8,6.8,0,0,1,1.36-2.354,5.924,5.924,0,0,1,2.067-1.484,6.494,6.494,0,0,1,2.6-.513,6.759,6.759,0,0,1,2.2.349,6.008,6.008,0,0,1,1.82.986,5.594,5.594,0,0,1,1.325,1.516,5.584,5.584,0,0,1,.707,1.945Zm3.514-4.6H57.33l3.8,6.614h.159l3.8-6.614h2.494L62.3-5.71V0H60.108V-5.71ZM69.273,0V-1.46l7.648-11.2H69.21v-1.886h10.4v1.46L71.96-1.886h7.71V0Z" transform="translate(171 72.505)" fill="#787882"/>
    <path id="Path_313" data-name="Path 313" d="M1.159,0V-8.727H6.21v.716H1.955v3.284H5.813v.716H1.955V0ZM14.011-8.727h.8v5.778a3.049,3.049,0,0,1-.417,1.592,2.963,2.963,0,0,1-1.161,1.1,3.577,3.577,0,0,1-1.729.4,3.574,3.574,0,0,1-1.727-.4,2.971,2.971,0,0,1-1.163-1.1,3.033,3.033,0,0,1-.416-1.59V-8.727h.8v5.722A2.441,2.441,0,0,0,9.3-1.767a2.23,2.23,0,0,0,.876.854A2.7,2.7,0,0,0,11.5-.6a2.707,2.707,0,0,0,1.325-.311,2.218,2.218,0,0,0,.876-.854,2.45,2.45,0,0,0,.31-1.239Zm9.909,0V0h-.773L17.989-7.307H17.92V0h-.8V-8.727H17.9l5.17,7.318h.068V-8.727ZM28.8,0H26.239V-8.727h2.71a4.156,4.156,0,0,1,2.137.521,3.42,3.42,0,0,1,1.362,1.492,5.254,5.254,0,0,1,.472,2.328,5.3,5.3,0,0,1-.485,2.356,3.433,3.433,0,0,1-1.4,1.506A4.453,4.453,0,0,1,28.8,0ZM27.034-.716H28.75a3.679,3.679,0,0,0,1.882-.442,2.773,2.773,0,0,0,1.137-1.265,4.635,4.635,0,0,0,.379-1.963,4.672,4.672,0,0,0-.371-1.942,2.743,2.743,0,0,0-1.092-1.248A3.392,3.392,0,0,0,28.9-8.011H27.034Z" transform="translate(171 86.505)" fill="#787882"/>
  </g>
</svg>
