<svg xmlns="http://www.w3.org/2000/svg" width="197.154" height="41.17" viewBox="0 0 197.154 41.17">
  <g id="Group_7" data-name="Group 7" transform="translate(-6352 -10926)">
    <path id="Path_20" data-name="Path 20" d="M2.484-23.782V0H9.016V-12.466q0-3.634,1.2-5.221a4.526,4.526,0,0,1,3.864-1.587,3.563,3.563,0,0,1,3.266,1.449,8.334,8.334,0,0,1,.92,4.393V0H24.8V-14.628a19.168,19.168,0,0,0-.391-4.025,7.655,7.655,0,0,0-1.357-3.082,6.377,6.377,0,0,0-2.65-1.978,11.094,11.094,0,0,0-4.3-.713,9.312,9.312,0,0,0-4.048.943,7.5,7.5,0,0,0-3.22,3.013h-.14v-3.312ZM45.77-14.444H35.144a7.5,7.5,0,0,1,.3-1.564,4.8,4.8,0,0,1,.874-1.656,4.948,4.948,0,0,1,1.656-1.311,5.683,5.683,0,0,1,2.6-.529,4.587,4.587,0,0,1,3.565,1.288,7.55,7.55,0,0,1,1.631,3.772ZM35.144-10.3H52.3a16.79,16.79,0,0,0-.46-5.29,12.948,12.948,0,0,0-2.091-4.51,10.558,10.558,0,0,0-3.7-3.151,11.308,11.308,0,0,0-5.29-1.173,12.317,12.317,0,0,0-4.945.966,11.692,11.692,0,0,0-3.841,2.645,11.658,11.658,0,0,0-2.484,3.979,13.87,13.87,0,0,0-.874,4.968,14.48,14.48,0,0,0,.851,5.06A11.491,11.491,0,0,0,31.881-2.85,10.521,10.521,0,0,0,35.7-.3a13.583,13.583,0,0,0,5.06.9,12.457,12.457,0,0,0,6.9-1.84,10.915,10.915,0,0,0,4.228-6.12h-5.75A4.1,4.1,0,0,1,44.39-5.267a5.823,5.823,0,0,1-3.4.989A5.839,5.839,0,0,1,36.754-5.7a6.6,6.6,0,0,1-1.61-4.6Zm26.818-1.564a14.273,14.273,0,0,1,.276-2.806,7.159,7.159,0,0,1,.943-2.438,5.3,5.3,0,0,1,1.771-1.725,5.256,5.256,0,0,1,2.76-.667,5.381,5.381,0,0,1,2.783.667,5.23,5.23,0,0,1,1.794,1.725,7.159,7.159,0,0,1,.943,2.438,14.273,14.273,0,0,1,.276,2.806,13.929,13.929,0,0,1-.276,2.783,7.414,7.414,0,0,1-.943,2.438A4.965,4.965,0,0,1,70.5-4.918a5.535,5.535,0,0,1-2.783.644,5.406,5.406,0,0,1-2.76-.644,5.023,5.023,0,0,1-1.771-1.725,7.414,7.414,0,0,1-.943-2.438,13.928,13.928,0,0,1-.276-2.787Zm-6.532,0a14.41,14.41,0,0,0,.87,5.148,11.176,11.176,0,0,0,2.484,3.933A10.866,10.866,0,0,0,62.652-.276,13.9,13.9,0,0,0,67.712.6a14.086,14.086,0,0,0,5.083-.874,10.826,10.826,0,0,0,3.887-2.507,11.176,11.176,0,0,0,2.484-3.933,14.411,14.411,0,0,0,.874-5.152,14.6,14.6,0,0,0-.874-5.175A11.137,11.137,0,0,0,76.682-21a11.086,11.086,0,0,0-3.887-2.53,13.763,13.763,0,0,0-5.083-.9,13.583,13.583,0,0,0-5.06.9A11.131,11.131,0,0,0,58.788-21,11.137,11.137,0,0,0,56.3-17.043a14.6,14.6,0,0,0-.87,5.175Z" transform="translate(6349.516 10958.844)" fill="#787882"/>
    <path id="Path_20-2" data-name="Path 20" d="M96.278-4.274a5.209,5.209,0,0,1-2.668-.644A5.168,5.168,0,0,1,91.839-6.6a7.25,7.25,0,0,1-.966-2.415,13.212,13.212,0,0,1-.3-2.806,14.51,14.51,0,0,1,.276-2.852,7.159,7.159,0,0,1,.943-2.438,5.37,5.37,0,0,1,1.748-1.725,5.039,5.039,0,0,1,2.691-.667,4.945,4.945,0,0,1,2.645.667,5.509,5.509,0,0,1,1.771,1.748,7.471,7.471,0,0,1,.989,2.461,13.213,13.213,0,0,1,.3,2.806,14.273,14.273,0,0,1-.276,2.806,6.916,6.916,0,0,1-.943,2.415,5.235,5.235,0,0,1-1.748,1.679,5.18,5.18,0,0,1-2.691.643Zm-12.006-19.5v32.1H90.8V-2.944h.1A7.706,7.706,0,0,0,93.955-.3a9.26,9.26,0,0,0,4.071.9A9.826,9.826,0,0,0,102.6-.414a9.686,9.686,0,0,0,3.266-2.714,11.711,11.711,0,0,0,1.955-3.91,16.345,16.345,0,0,0,.644-4.6,18.083,18.083,0,0,0-.644-4.853,11.85,11.85,0,0,0-1.978-4.071,9.972,9.972,0,0,0-3.358-2.806,10.3,10.3,0,0,0-4.83-1.058,9.313,9.313,0,0,0-4.048.874,7.184,7.184,0,0,0-3.036,2.806h-.092v-3.036Zm28.29-9.062V0h6.532V-32.844ZM123.97-16.468a7.588,7.588,0,0,1,1.15-3.818,7.831,7.831,0,0,1,2.576-2.438,11.225,11.225,0,0,1,3.519-1.311,20.007,20.007,0,0,1,3.933-.391,26.655,26.655,0,0,1,3.634.253,11.117,11.117,0,0,1,3.358.989,6.616,6.616,0,0,1,2.484,2.047,5.72,5.72,0,0,1,.966,3.473V-5.29a24.853,24.853,0,0,0,.184,3.082A5.571,5.571,0,0,0,146.418,0h-6.624a9.377,9.377,0,0,1-.3-1.127,9.815,9.815,0,0,1-.161-1.173,8.512,8.512,0,0,1-3.68,2.254A14.771,14.771,0,0,1,131.33.6a11.682,11.682,0,0,1-3.174-.414A7.269,7.269,0,0,1,125.58-1.1a6,6,0,0,1-1.725-2.208,7.465,7.465,0,0,1-.621-3.174,6.934,6.934,0,0,1,.713-3.335,5.961,5.961,0,0,1,1.84-2.093,8.244,8.244,0,0,1,2.576-1.173,27.5,27.5,0,0,1,2.921-.621q1.472-.23,2.9-.368a17.428,17.428,0,0,0,2.53-.414,4.41,4.41,0,0,0,1.748-.805,1.767,1.767,0,0,0,.6-1.541,3.466,3.466,0,0,0-.345-1.679,2.537,2.537,0,0,0-.92-.966,3.619,3.619,0,0,0-1.334-.46,10.916,10.916,0,0,0-1.633-.115,4.958,4.958,0,0,0-3.036.828,3.7,3.7,0,0,0-1.288,2.76Zm15.088,4.83a2.93,2.93,0,0,1-1.035.575,10.57,10.57,0,0,1-1.334.345q-.713.138-1.5.23t-1.564.23a11.8,11.8,0,0,0-1.449.368,4.284,4.284,0,0,0-1.242.621,2.952,2.952,0,0,0-.851.989,3.182,3.182,0,0,0-.322,1.518,3.073,3.073,0,0,0,.322,1.472,2.469,2.469,0,0,0,.874.943,3.689,3.689,0,0,0,1.288.483,8.221,8.221,0,0,0,1.518.138,5.774,5.774,0,0,0,2.99-.644,4.307,4.307,0,0,0,1.564-1.541,4.928,4.928,0,0,0,.621-1.817,12.479,12.479,0,0,0,.115-1.472Zm27.784-3.772h6.394a8.948,8.948,0,0,0-1.1-3.979,8.987,8.987,0,0,0-2.507-2.806,10.866,10.866,0,0,0-3.5-1.679,14.91,14.91,0,0,0-4.071-.552,12.972,12.972,0,0,0-5.152.966,10.843,10.843,0,0,0-3.818,2.691,11.539,11.539,0,0,0-2.369,4.094,15.844,15.844,0,0,0-.8,5.129,13.32,13.32,0,0,0,.874,4.9A11.417,11.417,0,0,0,153.231-2.8a10.863,10.863,0,0,0,3.79,2.5,13.016,13.016,0,0,0,4.9.9,11.877,11.877,0,0,0,7.774-2.484,10.776,10.776,0,0,0,3.68-7.222h-6.3a6.2,6.2,0,0,1-1.587,3.519,4.785,4.785,0,0,1-3.611,1.311,4.614,4.614,0,0,1-2.576-.69,5.153,5.153,0,0,1-1.679-1.771,8.112,8.112,0,0,1-.9-2.415,12.921,12.921,0,0,1-.276-2.622,13.472,13.472,0,0,1,.276-2.691,7.948,7.948,0,0,1,.943-2.484,5.667,5.667,0,0,1,1.725-1.84,4.587,4.587,0,0,1,2.622-.713q4.188,0,4.83,4.092Zm26.22.966H182.436a7.5,7.5,0,0,1,.3-1.564,4.8,4.8,0,0,1,.874-1.656,4.948,4.948,0,0,1,1.656-1.311,5.683,5.683,0,0,1,2.6-.529,4.587,4.587,0,0,1,3.565,1.288,7.55,7.55,0,0,1,1.631,3.772ZM182.436-10.3h17.158a16.789,16.789,0,0,0-.46-5.29,12.949,12.949,0,0,0-2.093-4.508,10.558,10.558,0,0,0-3.7-3.151,11.308,11.308,0,0,0-5.29-1.173,12.317,12.317,0,0,0-4.945.966,11.692,11.692,0,0,0-3.841,2.645,11.659,11.659,0,0,0-2.484,3.979,13.871,13.871,0,0,0-.874,4.968,14.48,14.48,0,0,0,.851,5.06,11.491,11.491,0,0,0,2.415,3.956A10.521,10.521,0,0,0,182.988-.3a13.583,13.583,0,0,0,5.06.9,12.457,12.457,0,0,0,6.9-1.84,10.915,10.915,0,0,0,4.232-6.12h-5.75a4.1,4.1,0,0,1-1.748,2.093,5.823,5.823,0,0,1-3.4.989A5.839,5.839,0,0,1,184.046-5.7a6.6,6.6,0,0,1-1.61-4.6Z" transform="translate(6349.516 10958.844)" fill="#787882"/>
  </g>
</svg>
