<svg xmlns="http://www.w3.org/2000/svg" width="91.86" height="26.634" viewBox="0 0 91.86 26.634">
  <g id="Group_36" data-name="Group 36" transform="translate(-6.825 -35.607)">
    <path id="Path_330" data-name="Path 330" d="M20.043,56.418l-6.375-1.562s1.784.4,3.192.546c.577.058.7.086,1.408.141,0,0,.723.065.822.071a6.742,6.742,0,0,0,1,0l-.052-3s-7.828-1.282-8-1.415l2.389.288.656.062h.764l1.694.112h2.548l6.871-.228a.728.728,0,0,0,.541-.234.85.85,0,0,0,.228-.6v-.83l-7.594-.348S8.912,48.206,9.026,48.113a57.209,57.209,0,0,0,7,.175c2.377-.209,4.117-.175,4.117-.175h9.132v3.322a1.644,1.644,0,0,1-.455,1.181,1.439,1.439,0,0,1-1.081.48H21.582v3.322Zm10.769,0V48.113H32.35v3.322H38.5a1.648,1.648,0,0,1-.455,1.181,1.436,1.436,0,0,1-1.081.48H32.352v3.322Zm7.692,0V48.113h1.538v8.305Zm3.076,0V51.435h9.23v4.983H49.273V53.1H43.118v3.322Zm1.538-6.644a1.432,1.432,0,0,1-1.093-.48,1.7,1.7,0,0,1-.444-1.181h9.23a1.65,1.65,0,0,1-.457,1.181,1.441,1.441,0,0,1-1.081.48Zm10.77,6.644V49.774l-1.54-1.661h2.308l5.385,5.814V48.113h1.537v8.305H60.04l-4.614-4.983v4.983Zm13.076,0V49.774H64.657a1.432,1.432,0,0,1-1.094-.48,1.7,1.7,0,0,1-.444-1.181h9.23a1.65,1.65,0,0,1-.457,1.181,1.442,1.442,0,0,1-1.082.48H68.5v6.644Zm6.923,0V51.435h1.538v3.322h6.154V51.435h1.538v4.983Zm1.538-6.644a1.432,1.432,0,0,1-1.094-.48,1.709,1.709,0,0,1-.444-1.181h9.23a1.65,1.65,0,0,1-.457,1.181,1.441,1.441,0,0,1-1.081.48Zm10.769,6.644V49.774l-1.538-1.661h2.307l3.846,4.152,3.846-4.152h2.308l-1.538,1.661v6.644H93.886V51.435l-2.307,2.491v2.492H90.04V53.927l-2.307-2.491v4.982Z" fill="#787882"/>
    <path id="Path_331" data-name="Path 331" d="M53.49,62.239a.625.625,0,0,1-.484-.212.753.753,0,0,1-.195-.523v-1.47h.679v1.1a.39.39,0,0,0,.1.265.33.33,0,0,0,.244.1h3.056a.736.736,0,0,1-.2.523.634.634,0,0,1-.478.212ZM52.811,59.3v-.735h4.075a.732.732,0,0,1-.2.522.635.635,0,0,1-.478.213Zm4.755,2.94v-2.2h4.075v2.206h-.679v-1.47H58.245v1.47Zm.679-2.94a.632.632,0,0,1-.483-.213.75.75,0,0,1-.195-.522h4.074a.732.732,0,0,1-.2.522.635.635,0,0,1-.478.213Zm4.075,2.94v-2.2h3.057a.328.328,0,0,0,.239-.1.382.382,0,0,0,.1-.265V59.3H63a.632.632,0,0,1-.483-.213.746.746,0,0,1-.195-.522H66.4v1.47a.732.732,0,0,1-.2.522.631.631,0,0,1-.477.213h-.68L66.4,62.239H65.377l-1.359-1.47H63v1.47Zm6.793,0v-2.2h3.056a.327.327,0,0,0,.239-.1.377.377,0,0,0,.1-.265V59.3H69.792a.633.633,0,0,1-.483-.213.755.755,0,0,1-.195-.522h4.074v1.47a.732.732,0,0,1-.2.522.635.635,0,0,1-.478.213H71.83l1.358,1.471H72.17l-1.359-1.47H69.792v1.47Zm5.434,0a.635.635,0,0,1-.483-.211.757.757,0,0,1-.195-.523h4.076a.736.736,0,0,1-.2.523.634.634,0,0,1-.478.212Zm0-1.47a.633.633,0,0,1-.483-.213.75.75,0,0,1-.195-.522h4.075a.732.732,0,0,1-.2.522.633.633,0,0,1-.478.213Zm0-1.47a.633.633,0,0,1-.483-.213.75.75,0,0,1-.195-.522h4.075a.732.732,0,0,1-.2.522.633.633,0,0,1-.478.213Zm4.755,2.94V59.3l-.68-.735h1.019l2.378,2.573V58.563H82.7v3.676h-.679l-2.038-2.206v2.206Zm5.773,0V59.3H84.057a.632.632,0,0,1-.483-.213.746.746,0,0,1-.195-.522h4.075a.732.732,0,0,1-.2.522.635.635,0,0,1-.478.213H85.756v2.94Zm3.057,0v-2.2h4.075v2.206h-.679v-1.47H88.811v1.47Zm.679-2.94a.633.633,0,0,1-.483-.213.755.755,0,0,1-.195-.522h4.076a.733.733,0,0,1-.2.522.632.632,0,0,1-.478.213Zm4.076,2.94V58.563h.679V61.5h3.4a.732.732,0,0,1-.2.522.635.635,0,0,1-.478.213Z" fill="#787882"/>
    <path id="Path_332" data-name="Path 332" d="M44.954,35.676a32.061,32.061,0,0,0-6.195.767c-.268.061-.7.155-.972.209s-.668.146-.891.2-.569.141-.77.186c-.91.2-2.21.541-3.441.893-.312.089-.8.223-1.094.3q-1.432.377-2.845.821a2.576,2.576,0,0,1-.5.12,1.38,1.38,0,0,0-.394.113c-.242.1-.566.2-1.927.594-.245.07-.573.175-.729.233a12.488,12.488,0,0,1-1.5.443,1.065,1.065,0,0,0-.331.122,1.081,1.081,0,0,1-.371.122,1.375,1.375,0,0,0-.405.118c-.146.065-.539.2-.873.294s-.9.278-1.255.4-.739.253-.851.282a2.9,2.9,0,0,0-.364.126,4.108,4.108,0,0,1-.446.152c-.155.044-.538.17-.85.281a8.758,8.758,0,0,1-.85.259,1.3,1.3,0,0,0-.365.119,1.391,1.391,0,0,1-.4.12,1.413,1.413,0,0,0-.405.122,12.267,12.267,0,0,1-1.822.458c-2.449.506-3.427.528-4.852.107a5.991,5.991,0,0,0-.585-.153A5.424,5.424,0,0,1,7.99,43.2a4.771,4.771,0,0,0-.69-.285.081.081,0,0,1-.059-.023.084.084,0,0,1-.026-.058c0-.045-.088-.082-.2-.082h-.2l.216.264a14.281,14.281,0,0,0,2.944,2.586,2.569,2.569,0,0,1,.308.16c2.1,1.385,5.8,1.574,9.151.47.6-.2,1.276-.407,1.5-.463.8-.2,1.388-.339,1.984-.455.334-.065.66-.138.725-.163a7.337,7.337,0,0,1,.85-.121c.4-.041,1.067-.112,1.476-.158a7.441,7.441,0,0,1,1.579,0c.461.047,1.219.115,1.687.153a16.075,16.075,0,0,1,2.551.425,8.76,8.76,0,0,0,1.175.151c.467.033,1.305.1,1.862.15a40.08,40.08,0,0,0,6.628.125c.666-.07.431-.14-.7-.208-.991-.059-3.241-.291-4.593-.474-2.342-.316-2.564-.35-3.928-.615-.612-.119-1.163-.207-2.43-.387a51.957,51.957,0,0,0-6.438,0c-.312.055-.859.138-1.215.184s-.94.135-1.3.2-.94.156-1.3.209q-.609.093-1.215.209c-1.934.381-3.554.53-3.737.343-.12-.12-.1-.138.225-.22a2.868,2.868,0,0,0,.558-.2,2.1,2.1,0,0,1,.507-.17.75.75,0,0,0,.349-.13.267.267,0,0,1,.2-.072,3.183,3.183,0,0,0,.623-.152c.256-.083.9-.286,1.438-.451s1.081-.339,1.215-.387a3.425,3.425,0,0,1,.487-.129,1.031,1.031,0,0,0,.325-.1,20.723,20.723,0,0,1,1.979-.622q.368-.106.729-.236a10.5,10.5,0,0,1,1.536-.445A.339.339,0,0,0,25,41.946a1.227,1.227,0,0,1,.4-.157c.178-.044.433-.118.567-.164s.516-.163.851-.261.7-.212.809-.256a13.824,13.824,0,0,1,1.337-.392,3.454,3.454,0,0,0,.485-.153c.146-.065,1.079-.359,2.673-.835.312-.093.683-.219.822-.28a1.331,1.331,0,0,1,.364-.11,2.568,2.568,0,0,0,.474-.118,37.481,37.481,0,0,1,5.143-1.309c1.5-.276,2-.354,2.875-.447.423-.045.952-.117,1.174-.16a61.8,61.8,0,0,1,9.354-.088c2.138.352,4.937.921,5.861,1.192a2.867,2.867,0,0,0,.549.115,12.006,12.006,0,0,1,1.69.414,4.2,4.2,0,0,0,.607.148c.479.083,1.329.294,2.47.613.245.068.845.221,1.336.338s.946.241,1.013.275a2.023,2.023,0,0,0,.971.089c0-.037-.1-.092-.222-.121a3.141,3.141,0,0,1-.488-.172,10.272,10.272,0,0,0-1.235-.479c-.26-.084-.517-.179-.769-.285-.179-.079-.6-.229-.931-.331a4.923,4.923,0,0,1-.689-.249,1.7,1.7,0,0,0-.364-.144c-.156-.046-.393-.122-.527-.169-.639-.229-2.739-.909-3.28-1.065-.334-.1-.7-.212-.805-.257a3.962,3.962,0,0,0-.526-.153c-.326-.075-.652-.157-.975-.243s-.673-.173-1.012-.249a4.468,4.468,0,0,1-.568-.158,4.37,4.37,0,0,0-.688-.158c-.267-.043-.96-.155-1.539-.251a32.874,32.874,0,0,0-7.247-.239m22.587,6.541c-.018.018-.89.073-1.937.122l-3.766.177c-5.773.27-10.023.487-12.472.636a79.99,79.99,0,0,1-11.338.184c-1.413-.093-1.9-.138-4.131-.39-2-.226-2.35-.261-2.692-.267-.189,0-.344.03-.344.075s.136.082.3.083a3.028,3.028,0,0,1,.628.089c.178.047.614.137.97.2a8.073,8.073,0,0,1,.882.2,2.2,2.2,0,0,0,.587.083,6.193,6.193,0,0,1,.94.117c.556.111,1.16.181,3.262.379.49.046,1.3.137,1.787.2a15.381,15.381,0,0,0,1.661.117c.419,0,1.546.054,2.5.12,3.051.209,12.033.208,16.36,0,1.314-.066,3.109-.117,3.989-.117s2.593-.06,3.807-.131c2.936-.174,13.288-.207,14.273-.045.357.058,1.194.138,1.862.178a57.148,57.148,0,0,1,5.831.729c1.6.312,3.655.8,5.062,1.191.245.069.646.176.891.238a9.855,9.855,0,0,1,1.558.447.95.95,0,0,0,.4.071l.264-.009L98.4,46.8a1.234,1.234,0,0,1-.39-.2.365.365,0,0,0-.195-.106,15.134,15.134,0,0,1-1.7-.652,2.343,2.343,0,0,0-.445-.154c-.169-.042-.618-.184-.995-.316s-.781-.264-1.174-.384c-.268-.078-.632-.19-.81-.248s-.452-.131-.608-.162a1.232,1.232,0,0,1-.364-.118,2.252,2.252,0,0,0-.527-.151c-.412-.083-1.125-.244-2.429-.551-.9-.212-3.51-.659-4.5-.769-.358-.041-.813-.109-1.012-.152a9.566,9.566,0,0,0-1.013-.126c-.357-.026-1.285-.1-2.065-.167a124.711,124.711,0,0,0-12.64-.332" fill="#787882"/>
  </g>
</svg>
