<svg xmlns="http://www.w3.org/2000/svg" xmlns:xlink="http://www.w3.org/1999/xlink" width="204" height="43.35" viewBox="0 0 204 43.35">
  <defs>
    <clipPath id="clip-path">
      <rect id="Rectangle_9" data-name="Rectangle 9" width="204" height="43.35" fill="#787882"/>
    </clipPath>
  </defs>
  <g id="Group_28" data-name="Group 28" clip-path="url(#clip-path)">
    <path id="Path_282" data-name="Path 282" d="M44.63,9.274a9.109,9.109,0,0,0-7.008,5.93,8.359,8.359,0,0,0-.484,5.7c1.066,3.312,4.343,4.508,6.459,5.283a8.811,8.811,0,0,0,3.229.695h.307a7.523,7.523,0,0,0,5.829-3.054,8.081,8.081,0,0,0,1.453-3.942,10.8,10.8,0,0,0-3.391-8.159A7.91,7.91,0,0,0,44.63,9.274ZM50.3,21.909a4.213,4.213,0,0,1-3.229,1.616,5.245,5.245,0,0,1-2.228-.5c-1.76-.63-3.94-1.422-4.505-3.231a5.4,5.4,0,0,1,.4-3.474,5.911,5.911,0,0,1,4.311-3.862h.388A5.069,5.069,0,0,1,48.8,14.073a7.644,7.644,0,0,1,2.406,5.51,4.849,4.849,0,0,1-.9,2.327Z" fill="#787882"/>
    <path id="Path_283" data-name="Path 283" d="M68.382,9.387A8.765,8.765,0,0,0,61.923,12.2a7.985,7.985,0,0,0-2.18,6.3A8.448,8.448,0,0,0,66.2,25.125a9.376,9.376,0,0,0,2.438.339,6.973,6.973,0,0,0,3.778-1.05,8.257,8.257,0,0,0,3.472-5.9,7.938,7.938,0,0,0-.969-6.269,7.523,7.523,0,0,0-6.539-2.86Zm4.182,8.273a5.042,5.042,0,0,1-1.921,3.668,4.422,4.422,0,0,1-3.585.307,5.265,5.265,0,0,1-3.988-3.862A4.849,4.849,0,0,1,64.3,14.137a5.392,5.392,0,0,1,4.053-1.7h0a4.471,4.471,0,0,1,3.795,1.486h0a4.849,4.849,0,0,1,.42,3.732Z" fill="#787882"/>
    <path id="Path_284" data-name="Path 284" d="M89.276,19.389a5.57,5.57,0,0,0,4.941-3.054c1.857-3.409-.565-6.883-4.392-7.158a9.263,9.263,0,0,0-4.44.517,6.46,6.46,0,0,0-2.067,1.39,4.348,4.348,0,0,0-1.1,1.971,8.2,8.2,0,0,0-.145,2.86,50.729,50.729,0,0,1,0,5.429,29.959,29.959,0,0,0,0,3.991,3.637,3.637,0,0,0,.84,2.488,3.49,3.49,0,0,0,1.259-2.311,27.855,27.855,0,0,0,.775-5.768c.436.372.92.711,1.308,1.018,1.243.9,2.664,1.89,3.843,2.828a26.333,26.333,0,0,0,3.229,2.31,4.276,4.276,0,0,0,2.583.679A4.557,4.557,0,0,0,94.3,23.46a41.986,41.986,0,0,0-5.022-4.072Zm-3.552-3.1-.694-.1a4.413,4.413,0,0,1,.371-2.973,4.649,4.649,0,0,1,1.033-.711l.549-.194a5.519,5.519,0,0,1,1.825-.145,4.584,4.584,0,0,1,1.76.291,1.954,1.954,0,0,1,1.033.953,2.554,2.554,0,0,1-1.082,2.747c-.937.63-2.228.485-4.8.194Z" fill="#787882"/>
    <path id="Path_285" data-name="Path 285" d="M114.853,21.182c-.339.388-.565.679-.84,1.018a1.722,1.722,0,0,1-.484.485,3.591,3.591,0,0,1-.9.339H112.4c-1.922.42-5.345.662-6.814-2.553a5.281,5.281,0,0,1,.21-4.589,5.135,5.135,0,0,1,3.52-2.8,4.453,4.453,0,0,1,2.373.1,8.476,8.476,0,0,1,1.276.63l.387.259a5.046,5.046,0,0,0,1.615.824h0a1.742,1.742,0,0,0,.581-.792,3.359,3.359,0,0,0-1.453-3.328,8.069,8.069,0,0,0-9.268.614,8.874,8.874,0,0,0-2.293,11.31,8.071,8.071,0,0,0,7.266,4.12h1.066a6.732,6.732,0,0,0,3.924-1.309A3.4,3.4,0,0,0,115.9,22.62a1.616,1.616,0,0,0-1.05-1.438Z" fill="#787882"/>
    <path id="Path_286" data-name="Path 286" d="M163.52,17.337h-.113a43.126,43.126,0,0,0-1.5-4.266,1.327,1.327,0,0,0-.209-.469A8.241,8.241,0,0,0,158.9,8.644a2.63,2.63,0,0,0-3.229.372,10.614,10.614,0,0,0-1.986,3.377l-.436.986a43.127,43.127,0,0,0-1.615,4.1l-1.469-.065a4.214,4.214,0,0,0-2.81.889l-.1.081v.1a4.294,4.294,0,0,0,3.23,1.939,15.283,15.283,0,0,0-1.1,7.578v.275l.193-.21a20.041,20.041,0,0,0,3.537-6.317c.113-.291.226-.6.355-.889a33.322,33.322,0,0,0,7.6-.1c.291.9.565,1.842.84,2.763a8.638,8.638,0,0,0,2.809,4.443l.21.162v-.259a18.652,18.652,0,0,0-.307-5.073c-.177-.84-.371-1.616-.581-2.537a5.261,5.261,0,0,0,3.875-2.02v-.129l-.113-.081a6.6,6.6,0,0,0-4.295-.695Zm-8.509.226c.759-1.616,1.614-3.231,2.357-4.847l.194-.355a14.842,14.842,0,0,1,1.066,2v.161c.436.953.855,1.987,1.275,3.07C158.45,17.547,156.771,17.563,155.011,17.563Z" fill="#787882"/>
    <path id="Path_287" data-name="Path 287" d="M141.786,17.014a7.072,7.072,0,0,1-1-.129l-.84-.113a4.843,4.843,0,0,0-.969,0,23.047,23.047,0,0,0-.161-3.344v-.194A5.337,5.337,0,0,0,137.2,8.967h0a5.062,5.062,0,0,0-1.615,4.2v.275c-.1,1.163-.145,2.359-.177,3.555h-2.18a35.387,35.387,0,0,0-4.537.194h-.339a27.931,27.931,0,0,0-.178-3.894v-.129a5.271,5.271,0,0,0-1.615-4.249h0a5.059,5.059,0,0,0-1.614,4.185v.291c-.1,1.244-.162,2.537-.178,3.845a7.38,7.38,0,0,0-1.5.226,4.564,4.564,0,0,0-.823.307l-.42.162h-.178c-.129.129-.129.323,0,.566a3.8,3.8,0,0,0,2.39,1.616l.614.1a15.37,15.37,0,0,0,.145,2.617v.436a5.331,5.331,0,0,0,1.615,4.217v.1l.1-.1a4.3,4.3,0,0,0,1.324-2.246,10.315,10.315,0,0,0,.177-1.616v-.727c0-.743.1-1.486.13-2.214a38.936,38.936,0,0,0,7.136-.178c0,.84.081,1.616.13,2.44v.436a5.363,5.363,0,0,0,1.517,4.217l.1.081.1-.081a4.441,4.441,0,0,0,1.324-2.262,12.52,12.52,0,0,0,.178-1.616v-.743c0-.986.129-2.02.145-3.07a4.617,4.617,0,0,0,2.471-1.357,1.714,1.714,0,0,0,.484-1.373v-.113Z" fill="#787882"/>
    <path id="Path_288" data-name="Path 288" d="M23.316,2.617A15.09,15.09,0,0,0,14.016,0,13.655,13.655,0,0,0,5.668,2.779,13.558,13.558,0,0,0,.743,11.31c-.969,6.463,3.229,11.2,4.957,12.926L4.844,25.27c-.969,1.228-2,2.6-2.955,3.862A8.08,8.08,0,0,0,.275,32.007,5.594,5.594,0,0,0,0,33.93a5.715,5.715,0,0,0,3.31-1.422c.694-.614,1.615-1.616,2.309-2.294,1.163-1.2,2.309-2.407,3.407-3.668a18.753,18.753,0,0,0,4.408,1.616,19.96,19.96,0,0,0,4.763.727,10.407,10.407,0,0,0,4.037-.792c5.393-2.23,6.911-8.3,7.25-10.114A15.58,15.58,0,0,0,23.316,2.617ZM25.69,17.3c-.162.953-1.227,5.72-4.925,7.255a10.037,10.037,0,0,1-6.459-.129,15.474,15.474,0,0,1-2.745-.9c.84-1.018,1.615-2.052,2.454-3.1.549-.776,1.421-1.826,1.922-2.617a6.175,6.175,0,0,0,.953-3.458,5.617,5.617,0,0,0-3.342,1.373c-.711.614-1.615,1.616-2.325,2.278Q9.607,19.615,8.17,21.231c-1.372-1.357-4.36-4.847-3.665-9.371A9.566,9.566,0,0,1,8.074,5.817a10.023,10.023,0,0,1,6.071-1.939h.468A11.2,11.2,0,0,1,21.072,5.8,11.782,11.782,0,0,1,25.69,17.3Z" fill="#787882"/>
    <path id="Path_289" data-name="Path 289" d="M174.5,18.015c.339,1.81,1.857,7.885,7.25,10.115a10.362,10.362,0,0,0,4.036.792,19.968,19.968,0,0,0,4.845-.727,18.443,18.443,0,0,0,4.391-1.616c1.115,1.26,2.261,2.472,3.424,3.668.678.662,1.614,1.616,2.292,2.294a5.764,5.764,0,0,0,3.327,1.422,5.6,5.6,0,0,0-.21-1.939,8.578,8.578,0,0,0-1.615-2.876c-.953-1.26-1.986-2.634-2.971-3.862-.291-.372-.581-.743-.888-1.1,1.76-1.616,5.942-6.463,4.973-12.926a13.557,13.557,0,0,0-4.844-8.515A13.67,13.67,0,0,0,189.968,0a15.074,15.074,0,0,0-9.284,2.6A15.579,15.579,0,0,0,174.5,18.015Zm8.4-12.231a11.2,11.2,0,0,1,6.459-1.923h.452a9.977,9.977,0,0,1,6.1,1.939,9.7,9.7,0,0,1,3.487,6.059,11.309,11.309,0,0,1-3.665,9.371c-1-1.1-2.018-2.181-3.068-3.231-.678-.663-1.615-1.616-2.309-2.278A5.666,5.666,0,0,0,187,14.348a6.317,6.317,0,0,0,.953,3.458c.517.792,1.389,1.842,1.938,2.617.791,1.05,1.614,2.084,2.438,3.1a15.061,15.061,0,0,1-2.745.9,10.038,10.038,0,0,1-6.459.129c-3.681-1.535-4.747-6.3-4.844-7.255A11.834,11.834,0,0,1,182.9,5.784Z" fill="#787882"/>
    <path id="Path_290" data-name="Path 290" d="M33.634,40.829v.291c0,.226,0,.355-.226.388h-.145c-.307,0-.807-.42-1.518-1.276h-.727c-.1,0-.129,0-.129.129a.4.4,0,0,0,0,.145c-.113.743-.274,1.131-.484,1.131h-.452c-.178-.1-.323-.727-.452-1.858a1.9,1.9,0,0,1,0-.226c0-.145,0-1.2-.129-3.151a2.163,2.163,0,0,1,1.518-.485h.194a2.712,2.712,0,0,1,2.826,1.713v.307a2.2,2.2,0,0,1-1.13,1.907A12.7,12.7,0,0,1,33.634,40.829Zm-2.826-1.616c1.34-.145,2-.533,2-1.2v-.162c0-.9-1.4-1.147-2.148-1.147H30.5a18.843,18.843,0,0,1,.307,2.569Z" fill="#787882"/>
    <path id="Path_291" data-name="Path 291" d="M35.733,39.1a20.228,20.228,0,0,0-.113-2.311h.113l-.113-.178V36.37c0-.469.565-.695,1.712-.695h.339c1.615,0,2.293.226,2.293.695q-.178.339-.339.339a23.431,23.431,0,0,1-2.406-.1.921.921,0,0,1-.339.1v1.616l.113.178.807-.081h1.146c.113,0,.258.113.452.339V39.1c0,.081-.161.21-.452.339H37.138c-.145,0-.226.081-.226.178a3.587,3.587,0,0,0,.226,1.276c1.211-.113,1.889-.162,2.067-.162l.339.339v.339q0,.485-1.792.485H36.331c-.371,0-.565-.259-.565-.776Z" fill="#787882"/>
    <path id="Path_292" data-name="Path 292" d="M44.743,37.63c.969-1.26,1.615-1.89,1.954-1.89h.4c.436,0,.985,1.5,1.615,4.508v.242c0,.1-.113.21-.323.355h-.646c-.21,0-.581-1.018-1.1-3.038a2.5,2.5,0,0,1-.129-.452h0c-.9,1.1-1.486,1.616-1.712,1.616h-.226a7.169,7.169,0,0,1-1.711-1.5V38.6c0,1.616,0,2.391-.194,2.391h-.371c-.194,0-.323-.307-.371-.921s0-1.1,0-1.793V36.612a.566.566,0,0,1,.323-.6h.21a1.34,1.34,0,0,1,1,.452A10.643,10.643,0,0,1,44.743,37.63Z" fill="#787882"/>
    <path id="Path_293" data-name="Path 293" d="M55.513,41.136c-.452-.242-.678-.517-.678-.856H51.783L50.992,41.6h-.468c-.161-.113-.242-.21-.242-.323v-.129a23.714,23.714,0,0,1,2.131-5.4l.178-.129h.242c.71,0,1.841,1.616,3.391,4.928v.129c-.113.307-.275.452-.468.452h-.242Zm-1.276-1.842a7.934,7.934,0,0,0-1.292-2.052l-.856,2.1Z" fill="#787882"/>
    <path id="Path_294" data-name="Path 294" d="M59.243,38.438a20.414,20.414,0,0,1,.226,3.054.743.743,0,0,1-.371.452H58.71c-.4,0-.614-1.115-.614-3.361V36.677a.484.484,0,0,1,.549-.533,3.1,3.1,0,0,1,.6,2.294Z" fill="#787882"/>
    <path id="Path_295" data-name="Path 295" d="M62.359,41.023H62c-.145,0-.258-.162-.307-.485,0-3.021.145-4.524.452-4.524h.258c.323,0,.937.452,1.825,1.373a21.837,21.837,0,0,0,2.164,2.1c.258-2,.517-3.005.823-3.005h.6c.242.1.371.242.371.452a15.587,15.587,0,0,0-.646,3.118,7.282,7.282,0,0,0-.113.856.936.936,0,0,1-.517.194h-.226q-.339,0-1.792-1.406l-1.922-1.874a16.4,16.4,0,0,1-.388,2.924C62.537,40.926,62.456,41.023,62.359,41.023Z" fill="#787882"/>
    <path id="Path_296" data-name="Path 296" d="M69.965,37.5v-.178c.275-.969.759-1.438,1.453-1.438h.371c.307,0,.468.129.468.307v.242a2.455,2.455,0,0,1-.824.469,1.1,1.1,0,0,0-.307.646c0,.372.371.792,1.114,1.228A2.521,2.521,0,0,1,73,40.183q0,1.034-1.615,1.7h-.5c-.452,0-.678-.226-.678-.517a.113.113,0,0,0,0-.081c0-.291.242-.469.743-.533a.726.726,0,0,0,.694-.291.534.534,0,0,0,.162-.4c0-.145-.371-.517-1.13-1.1a.743.743,0,0,1-.371-.42,2.134,2.134,0,0,1-.339-1.034Z" fill="#787882"/>
    <path id="Path_297" data-name="Path 297" d="M76.2,42.3c-.194.695-.517,1.05-.969,1.05-.081,0-.145,0-.242-.242v-.081a3.236,3.236,0,0,1,.323-.889c-.694,0-1.033-.178-1.033-.565V41.33c.1-.533.371-.792.791-.792a1.519,1.519,0,0,1,1.13,1.519Z" fill="#787882"/>
    <path id="Path_298" data-name="Path 298" d="M85.03,40.829v.291c0,.226,0,.355-.226.388h-.145c-.291,0-.791-.42-1.5-1.276h-.807a.113.113,0,0,0,0,.161.4.4,0,0,0,0,.146c-.113.743-.274,1.131-.468,1.131h-.468c-.162-.1-.323-.727-.452-1.858a1.9,1.9,0,0,1,0-.226c0-.145,0-1.2-.113-3.151a2.1,2.1,0,0,1,1.5-.485h.194a2.713,2.713,0,0,1,2.745,1.713v.307a2.2,2.2,0,0,1-1.13,1.907,11,11,0,0,1,.872.953ZM82.2,39.214c1.34-.146,2-.533,2-1.2v-.162c0-.9-1.4-1.147-2.131-1.147H81.9a16.34,16.34,0,0,1,.307,2.569Z" fill="#787882"/>
    <path id="Path_299" data-name="Path 299" d="M87.193,39.1a20.228,20.228,0,0,0-.113-2.311h.113l-.113-.178V36.37c0-.469.565-.695,1.728-.695h.339c1.518,0,2.277.226,2.277.695q-.178.339-.339.339a23.431,23.431,0,0,1-2.406-.1.92.92,0,0,1-.339.1v1.616l.113.178.807-.081h1.163c.113,0,.274.113.452.339V39.1c0,.081-.145.21-.452.339H88.5c-.145,0-.226.081-.226.178a3.59,3.59,0,0,0,.226,1.276c1.211-.113,1.905-.162,2.067-.162l.339.339v.339q0,.485-1.792.485H87.694c-.371,0-.565-.259-.565-.776Z" fill="#787882"/>
    <path id="Path_300" data-name="Path 300" d="M94.9,35.174h.21c1.712.178,2.584.727,2.584,1.616v.372a2.976,2.976,0,0,1-.323,1.131,1.809,1.809,0,0,1,1.179,1.616q0,1.939-3.536,1.939a4.967,4.967,0,0,1-.84,0h0c-.42,0-.646-.549-.646-1.616a13.413,13.413,0,0,1-.21-2.343c0-1.616.355-2.343,1.082-2.343C94.363,35.271,94.541,35.19,94.9,35.174Zm-.21,2.86h.662l1.1-.129a1.617,1.617,0,0,0,.226-1.131,1.614,1.614,0,0,0-1.389-.646h-.129l-.581.113v1.519Zm0,1.729v.824l.549.1h.323c1.276,0,1.922-.307,1.922-.824a.888.888,0,0,0-.856-.711,10.34,10.34,0,0,1-1.227.081h-.242l-.468-.081c0,.081,0,.1-.1.1Z" fill="#787882"/>
    <path id="Path_301" data-name="Path 301" d="M101.532,38.438a20.519,20.519,0,0,1,.194,3.054.757.757,0,0,1-.14.264.748.748,0,0,1-.232.188h-.387c-.4,0-.614-1.115-.614-3.361V36.677a.484.484,0,0,1,.549-.533,3.11,3.11,0,0,1,.63,2.294Z" fill="#787882"/>
    <path id="Path_302" data-name="Path 302" d="M107.8,40.829v.291c0,.226-.081.355-.226.388h-.145c-.307,0-.808-.42-1.518-1.276h-.727c-.1,0-.129,0-.129.129a.4.4,0,0,0,0,.145c-.113.743-.275,1.131-.484,1.131h-.453c-.177-.1-.322-.727-.452-1.858a2.131,2.131,0,0,1,0-.226c0-.145,0-1.2-.129-3.151a2.164,2.164,0,0,1,1.518-.485h.194a2.711,2.711,0,0,1,2.938,1.713v.307a2.2,2.2,0,0,1-1.13,1.906S107.3,40.2,107.8,40.829Zm-2.826-1.616c1.34-.145,2-.533,2-1.2v-.162c0-.9-1.4-1.147-2.147-1.147h-.162a18.787,18.787,0,0,1,.291,2.569Z" fill="#787882"/>
    <path id="Path_303" data-name="Path 303" d="M111.72,39.44c0-.549,0-1.373.1-2.488h-.726c-1.114-.129-1.615-.307-1.615-.549V36.1a.532.532,0,0,1,.549-.307h1.615a2.969,2.969,0,0,0,.71,0,4.705,4.705,0,0,0,.791,0h1.437c.582,0,.872.226.872.695s-.387.549-.629.549c-.549,0-.969-.081-1.276-.081h-.565v.695a7.828,7.828,0,0,0,0,1.244,7.243,7.243,0,0,0,0,1.083v1.18q-.275.533-.63.533c-.339,0-.549-.226-.646-.695Z" fill="#787882"/>
    <path id="Path_304" data-name="Path 304" d="M117.776,41.492c-.436,0-.727-1.745-.872-5.251a.867.867,0,0,1,.307-.436s0-.1.145-.1h.145c.259,0,.452.711.614,2.133,1.615-.145,2.6-.226,3.035-.226V36.79c0-.452.1-.679.275-.679s0-.178.178-.178h.209c.469,0,.711,1.422.711,4.265v.6a2.757,2.757,0,0,1-.5.452h-.452a.794.794,0,0,1-.29-.646,12.164,12.164,0,0,1-.178-1.745h0a22.159,22.159,0,0,0-2.81.21c.113,1,.178,1.616.194,1.907a1.408,1.408,0,0,1-.484.582Z" fill="#787882"/>
    <path id="Path_305" data-name="Path 305" d="M130.629,35.255c.985,0,1.372.9,1.437,1.745a2.1,2.1,0,0,1-.953,1.438l.4.63a.952.952,0,0,1,.759-.372h.4c.113,0,.209.1.274.291v.1c-.565.469-.84.808-.84,1a8.192,8.192,0,0,1,.517,1.115c0,.194-.145.307-.436.355h-.339a1.617,1.617,0,0,1-.452-.517,2.793,2.793,0,0,1-1.744.808h-.21a1.47,1.47,0,0,1-1.518-.808l-.113-.323c0-.695.646-1.486,1.906-2.375a3.532,3.532,0,0,1-1-1.907c0-.242.193-.533.565-.873a1.824,1.824,0,0,1,1-.275Zm-1.792,5.461c0,.113.242.194.71.258s.824-.307,1.292-.921a3.663,3.663,0,0,0-.6-.986,3.406,3.406,0,0,0-1.4,1.616Zm1.614-4.7a1.112,1.112,0,0,0-.6.355v.162a3.956,3.956,0,0,0,.726,1.2c.356-.258.549-.5.549-.727v-.178a.854.854,0,0,0-.662-.808Z" fill="#787882"/>
    <path id="Path_306" data-name="Path 306" d="M139.041,38.583c0,1.616.6,2.311,1.793,2.311a1.808,1.808,0,0,0,1.049-.339,1.31,1.31,0,0,0,.295-.444,1.327,1.327,0,0,0,.093-.525v-.1h-1.114c-.13,0-.243-.129-.34-.372v-.178c0-.452,1.728-.679,2.148-.679.161,0,.323.145.484.436v.889a2.2,2.2,0,0,1-1.76,2.165,3.885,3.885,0,0,1-1.211.258,2.583,2.583,0,0,1-2.5-2.1V38.664a3.911,3.911,0,0,1,.532-1.745,2.619,2.619,0,0,1,1.615-1.115,4.086,4.086,0,0,1,.646-.081h.291c.177.145.258.259.258.356a6.312,6.312,0,0,1-1.615.9,3.771,3.771,0,0,0-.662,1.6Z" fill="#787882"/>
    <path id="Path_307" data-name="Path 307" d="M145.323,39.1a20.052,20.052,0,0,0-.114-2.311h.114l-.114-.178V36.37c0-.469.582-.695,1.728-.695h.339c1.615,0,2.293.226,2.293.695q-.162.339-.339.339-.921,0-2.422-.1a.923.923,0,0,1-.339.1v1.616l.113.178.807-.081h1.163c.113,0,.274.113.452.339V39.1c0,.081-.145.21-.452.339H146.7c-.145,0-.226.081-.226.178a4.081,4.081,0,0,0,.226,1.276c1.211-.113,1.9-.162,2.067-.162l.339.339v.339q0,.485-1.792.485h-1.4q-.582,0-.581-.776Z" fill="#787882"/>
    <path id="Path_308" data-name="Path 308" d="M152.347,41.023h-.356c-.145,0-.258-.162-.306-.485,0-3.021.145-4.524.452-4.524h.242c.339,0,.953.452,1.841,1.373a21.908,21.908,0,0,0,2.163,2.1c.259-2,.517-3.005.824-3.005h.517c.242.1.371.242.371.452a15.58,15.58,0,0,0-.646,3.118,7.256,7.256,0,0,0-.113.856.937.937,0,0,1-.517.194h-.193q-.341,0-1.793-1.406l-1.9-1.874a16.373,16.373,0,0,1-.388,2.924C152.524,40.926,152.443,41.023,152.347,41.023Z" fill="#787882"/>
    <path id="Path_309" data-name="Path 309" d="M161.227,38.438a22.947,22.947,0,0,1,.226,3.054.776.776,0,0,1-.149.265.762.762,0,0,1-.239.188h-.387c-.4,0-.6-1.115-.6-3.361V36.677a.467.467,0,0,1,.019-.216.478.478,0,0,1,.113-.185.468.468,0,0,1,.4-.132,3.092,3.092,0,0,1,.614,2.294Z" fill="#787882"/>
    <path id="Path_310" data-name="Path 310" d="M167.331,36.176a.484.484,0,0,1,.532-.356h.243c.468.372.694,1.454.694,3.232V39.2a2.455,2.455,0,0,1-2.018,2.456l-.388.081c-1.728,0-2.729-1.066-3.036-3.231V36.176a1.01,1.01,0,0,1,.323-.275c.662,0,1,1.034,1,3.1.259,1.066.824,1.616,1.712,1.616a1.616,1.616,0,0,0,1.243-1.745Z" fill="#787882"/>
    <path id="Path_311" data-name="Path 311" d="M170.673,37.5v-.178c.274-.969.759-1.438,1.437-1.438h.371c.323,0,.485.129.485.307v.242a2.7,2.7,0,0,1-.824.469,1.155,1.155,0,0,0-.323.646c0,.372.372.792,1.114,1.228a2.449,2.449,0,0,1,.775,1.406c0,.695-.565,1.26-1.614,1.7h-.485c-.452,0-.678-.226-.678-.517a.545.545,0,0,0,0-.081q0-.436.727-.533a.757.757,0,0,0,.71-.291.534.534,0,0,0,.162-.4c0-.145-.372-.517-1.131-1.1a.745.745,0,0,1-.371-.42,2.129,2.129,0,0,1-.355-1.034Z" fill="#787882"/>
  </g>
</svg>
